<mxfile host="app.diagrams.net" modified="2023-12-02T08:06:42.692Z" agent="Mozilla/5.0 (Windows NT 10.0; Win64; x64) AppleWebKit/537.36 (KHTML, like Gecko) Chrome/119.0.0.0 Safari/537.36" etag="MdMl2dvHf8tyxEWflp29" version="22.1.5" type="device">
  <diagram id="R2lEEEUBdFMjLlhIrx00" name="Page-1">
    <mxGraphModel dx="1008" dy="636" grid="1" gridSize="10" guides="1" tooltips="1" connect="1" arrows="1" fold="1" page="1" pageScale="1" pageWidth="850" pageHeight="1100" math="0" shadow="0" extFonts="Permanent Marker^https://fonts.googleapis.com/css?family=Permanent+Marker">
      <root>
        <mxCell id="0" />
        <mxCell id="1" parent="0" />
        <mxCell id="Bf9bwvW09UOIFA9WCzzf-37" value="" style="endArrow=none;html=1;rounded=0;exitX=1;exitY=1;exitDx=0;exitDy=0;entryX=0.5;entryY=0;entryDx=0;entryDy=0;" parent="1" source="Bf9bwvW09UOIFA9WCzzf-42" target="Bf9bwvW09UOIFA9WCzzf-46" edge="1">
          <mxGeometry relative="1" as="geometry">
            <mxPoint x="250" y="140" as="sourcePoint" />
            <mxPoint x="380" y="190" as="targetPoint" />
          </mxGeometry>
        </mxCell>
        <mxCell id="Bf9bwvW09UOIFA9WCzzf-38" value="" style="endArrow=none;html=1;rounded=0;entryX=0.607;entryY=0.967;entryDx=0;entryDy=0;entryPerimeter=0;" parent="1" source="Bf9bwvW09UOIFA9WCzzf-46" target="Bf9bwvW09UOIFA9WCzzf-44" edge="1">
          <mxGeometry relative="1" as="geometry">
            <mxPoint x="438.0769230769231" y="160" as="sourcePoint" />
            <mxPoint x="442.6923076923076" y="100" as="targetPoint" />
          </mxGeometry>
        </mxCell>
        <mxCell id="Bf9bwvW09UOIFA9WCzzf-39" value="" style="endArrow=none;html=1;rounded=0;exitX=0.5;exitY=0;exitDx=0;exitDy=0;" parent="1" source="Bf9bwvW09UOIFA9WCzzf-46" target="Bf9bwvW09UOIFA9WCzzf-57" edge="1">
          <mxGeometry relative="1" as="geometry">
            <mxPoint x="495" y="165.71428571428567" as="sourcePoint" />
            <mxPoint x="610" y="100" as="targetPoint" />
          </mxGeometry>
        </mxCell>
        <mxCell id="Bf9bwvW09UOIFA9WCzzf-42" value="user_password" style="ellipse;whiteSpace=wrap;html=1;align=center;" parent="1" vertex="1">
          <mxGeometry x="170" y="40" width="100" height="40" as="geometry" />
        </mxCell>
        <mxCell id="Bf9bwvW09UOIFA9WCzzf-44" value="&lt;u style=&quot;border-color: var(--border-color);&quot;&gt;user_id&lt;/u&gt;" style="ellipse;whiteSpace=wrap;html=1;align=center;fontStyle=4;" parent="1" vertex="1">
          <mxGeometry x="50" y="40" width="100" height="40" as="geometry" />
        </mxCell>
        <mxCell id="Bf9bwvW09UOIFA9WCzzf-45" value="user_name" style="ellipse;whiteSpace=wrap;html=1;align=center;" parent="1" vertex="1">
          <mxGeometry x="530" y="40" width="100" height="40" as="geometry" />
        </mxCell>
        <mxCell id="Bf9bwvW09UOIFA9WCzzf-46" value="user" style="whiteSpace=wrap;html=1;align=center;" parent="1" vertex="1">
          <mxGeometry x="110" y="220" width="100" height="40" as="geometry" />
        </mxCell>
        <mxCell id="Bf9bwvW09UOIFA9WCzzf-53" value="Odrer" style="whiteSpace=wrap;html=1;align=center;" parent="1" vertex="1">
          <mxGeometry x="580" y="210" width="100" height="40" as="geometry" />
        </mxCell>
        <mxCell id="Bf9bwvW09UOIFA9WCzzf-54" value="Shipment" style="whiteSpace=wrap;html=1;align=center;" parent="1" vertex="1">
          <mxGeometry x="560" y="420" width="100" height="40" as="geometry" />
        </mxCell>
        <mxCell id="Bf9bwvW09UOIFA9WCzzf-55" value="user_email" style="ellipse;whiteSpace=wrap;html=1;align=center;" parent="1" vertex="1">
          <mxGeometry x="650" y="40" width="100" height="40" as="geometry" />
        </mxCell>
        <mxCell id="Bf9bwvW09UOIFA9WCzzf-56" value="first_name" style="ellipse;whiteSpace=wrap;html=1;align=center;" parent="1" vertex="1">
          <mxGeometry x="290" y="40" width="100" height="40" as="geometry" />
        </mxCell>
        <mxCell id="Bf9bwvW09UOIFA9WCzzf-57" value="last_name" style="ellipse;whiteSpace=wrap;html=1;align=center;" parent="1" vertex="1">
          <mxGeometry x="410" y="40" width="100" height="40" as="geometry" />
        </mxCell>
        <mxCell id="Bf9bwvW09UOIFA9WCzzf-60" value="" style="endArrow=none;html=1;rounded=0;entryX=0.5;entryY=0;entryDx=0;entryDy=0;" parent="1" source="Bf9bwvW09UOIFA9WCzzf-45" target="Bf9bwvW09UOIFA9WCzzf-46" edge="1">
          <mxGeometry relative="1" as="geometry">
            <mxPoint x="600" y="70" as="sourcePoint" />
            <mxPoint x="510" y="300" as="targetPoint" />
          </mxGeometry>
        </mxCell>
        <mxCell id="Bf9bwvW09UOIFA9WCzzf-61" value="" style="endArrow=none;html=1;rounded=0;exitX=0.5;exitY=0;exitDx=0;exitDy=0;" parent="1" source="Bf9bwvW09UOIFA9WCzzf-46" target="Bf9bwvW09UOIFA9WCzzf-55" edge="1">
          <mxGeometry relative="1" as="geometry">
            <mxPoint x="380" y="310" as="sourcePoint" />
            <mxPoint x="540" y="310" as="targetPoint" />
          </mxGeometry>
        </mxCell>
        <mxCell id="Bf9bwvW09UOIFA9WCzzf-62" value="" style="endArrow=none;html=1;rounded=0;exitX=0.5;exitY=0;exitDx=0;exitDy=0;entryX=0.5;entryY=1;entryDx=0;entryDy=0;" parent="1" source="Bf9bwvW09UOIFA9WCzzf-46" target="Bf9bwvW09UOIFA9WCzzf-56" edge="1">
          <mxGeometry relative="1" as="geometry">
            <mxPoint x="350" y="300" as="sourcePoint" />
            <mxPoint x="510" y="300" as="targetPoint" />
          </mxGeometry>
        </mxCell>
        <mxCell id="Bf9bwvW09UOIFA9WCzzf-66" value="price" style="ellipse;whiteSpace=wrap;html=1;align=center;" parent="1" vertex="1">
          <mxGeometry x="170" y="580" width="100" height="40" as="geometry" />
        </mxCell>
        <mxCell id="Bf9bwvW09UOIFA9WCzzf-69" value="shoe_type" style="ellipse;whiteSpace=wrap;html=1;align=center;" parent="1" vertex="1">
          <mxGeometry x="490" y="580" width="100" height="40" as="geometry" />
        </mxCell>
        <mxCell id="Bf9bwvW09UOIFA9WCzzf-70" value="product_name" style="ellipse;whiteSpace=wrap;html=1;align=center;" parent="1" vertex="1">
          <mxGeometry x="280" y="580" width="100" height="40" as="geometry" />
        </mxCell>
        <mxCell id="Bf9bwvW09UOIFA9WCzzf-71" value="product_id" style="ellipse;whiteSpace=wrap;html=1;align=center;fontStyle=4;" parent="1" vertex="1">
          <mxGeometry x="390" y="580" width="100" height="40" as="geometry" />
        </mxCell>
        <mxCell id="Bf9bwvW09UOIFA9WCzzf-72" value="Product" style="rounded=1;arcSize=10;whiteSpace=wrap;html=1;align=center;" parent="1" vertex="1">
          <mxGeometry x="410" y="490" width="100" height="40" as="geometry" />
        </mxCell>
        <mxCell id="Bf9bwvW09UOIFA9WCzzf-73" value="" style="endArrow=none;html=1;rounded=0;" parent="1" source="Bf9bwvW09UOIFA9WCzzf-72" target="Bf9bwvW09UOIFA9WCzzf-66" edge="1">
          <mxGeometry relative="1" as="geometry">
            <mxPoint x="350" y="300" as="sourcePoint" />
            <mxPoint x="510" y="300" as="targetPoint" />
          </mxGeometry>
        </mxCell>
        <mxCell id="Bf9bwvW09UOIFA9WCzzf-74" value="" style="endArrow=none;html=1;rounded=0;entryX=0.897;entryY=0.983;entryDx=0;entryDy=0;exitX=0.373;exitY=0;exitDx=0;exitDy=0;exitPerimeter=0;entryPerimeter=0;" parent="1" source="Bf9bwvW09UOIFA9WCzzf-69" target="Bf9bwvW09UOIFA9WCzzf-72" edge="1">
          <mxGeometry relative="1" as="geometry">
            <mxPoint x="350" y="300" as="sourcePoint" />
            <mxPoint x="510" y="300" as="targetPoint" />
          </mxGeometry>
        </mxCell>
        <mxCell id="Bf9bwvW09UOIFA9WCzzf-75" value="" style="endArrow=none;html=1;rounded=0;" parent="1" source="Bf9bwvW09UOIFA9WCzzf-71" target="Bf9bwvW09UOIFA9WCzzf-72" edge="1">
          <mxGeometry relative="1" as="geometry">
            <mxPoint x="350" y="300" as="sourcePoint" />
            <mxPoint x="570" y="400" as="targetPoint" />
          </mxGeometry>
        </mxCell>
        <mxCell id="Bf9bwvW09UOIFA9WCzzf-76" value="" style="endArrow=none;html=1;rounded=0;entryX=1;entryY=0;entryDx=0;entryDy=0;" parent="1" source="Bf9bwvW09UOIFA9WCzzf-72" target="Bf9bwvW09UOIFA9WCzzf-70" edge="1">
          <mxGeometry relative="1" as="geometry">
            <mxPoint x="350" y="300" as="sourcePoint" />
            <mxPoint x="510" y="300" as="targetPoint" />
          </mxGeometry>
        </mxCell>
        <mxCell id="Bf9bwvW09UOIFA9WCzzf-77" value="complete" style="ellipse;whiteSpace=wrap;html=1;align=center;" parent="1" vertex="1">
          <mxGeometry x="710" y="260" width="100" height="40" as="geometry" />
        </mxCell>
        <mxCell id="Bf9bwvW09UOIFA9WCzzf-78" value="date_order" style="ellipse;whiteSpace=wrap;html=1;align=center;" parent="1" vertex="1">
          <mxGeometry x="710" y="200" width="100" height="40" as="geometry" />
        </mxCell>
        <mxCell id="Bf9bwvW09UOIFA9WCzzf-79" value="oder_id" style="ellipse;whiteSpace=wrap;html=1;align=center;fontStyle=4;" parent="1" vertex="1">
          <mxGeometry x="710" y="130" width="100" height="40" as="geometry" />
        </mxCell>
        <mxCell id="Bf9bwvW09UOIFA9WCzzf-80" value="" style="endArrow=none;html=1;rounded=0;exitX=1;exitY=0.75;exitDx=0;exitDy=0;entryX=0;entryY=0.5;entryDx=0;entryDy=0;" parent="1" source="Bf9bwvW09UOIFA9WCzzf-53" target="Bf9bwvW09UOIFA9WCzzf-78" edge="1">
          <mxGeometry relative="1" as="geometry">
            <mxPoint x="350" y="300" as="sourcePoint" />
            <mxPoint x="510" y="300" as="targetPoint" />
          </mxGeometry>
        </mxCell>
        <mxCell id="Bf9bwvW09UOIFA9WCzzf-81" value="" style="endArrow=none;html=1;rounded=0;entryX=0.75;entryY=0;entryDx=0;entryDy=0;" parent="1" source="Bf9bwvW09UOIFA9WCzzf-79" target="Bf9bwvW09UOIFA9WCzzf-53" edge="1">
          <mxGeometry relative="1" as="geometry">
            <mxPoint x="470" y="220" as="sourcePoint" />
            <mxPoint x="630" y="220" as="targetPoint" />
          </mxGeometry>
        </mxCell>
        <mxCell id="Bf9bwvW09UOIFA9WCzzf-82" value="" style="endArrow=none;html=1;rounded=0;entryX=0.887;entryY=1.017;entryDx=0;entryDy=0;entryPerimeter=0;" parent="1" source="Bf9bwvW09UOIFA9WCzzf-77" target="Bf9bwvW09UOIFA9WCzzf-53" edge="1">
          <mxGeometry relative="1" as="geometry">
            <mxPoint x="350" y="300" as="sourcePoint" />
            <mxPoint x="510" y="300" as="targetPoint" />
          </mxGeometry>
        </mxCell>
        <mxCell id="Bf9bwvW09UOIFA9WCzzf-83" value="date_order" style="ellipse;whiteSpace=wrap;html=1;align=center;" parent="1" vertex="1">
          <mxGeometry x="10" y="490" width="100" height="40" as="geometry" />
        </mxCell>
        <mxCell id="Bf9bwvW09UOIFA9WCzzf-84" value="quantity" style="ellipse;whiteSpace=wrap;html=1;align=center;" parent="1" vertex="1">
          <mxGeometry x="10" y="390" width="100" height="40" as="geometry" />
        </mxCell>
        <mxCell id="Bf9bwvW09UOIFA9WCzzf-85" value="date_add" style="ellipse;whiteSpace=wrap;html=1;align=center;" parent="1" vertex="1">
          <mxGeometry x="10" y="440" width="100" height="40" as="geometry" />
        </mxCell>
        <mxCell id="Bf9bwvW09UOIFA9WCzzf-86" value="" style="endArrow=none;html=1;rounded=0;exitX=0;exitY=0.5;exitDx=0;exitDy=0;" parent="1" source="Bf9bwvW09UOIFA9WCzzf-124" target="Bf9bwvW09UOIFA9WCzzf-84" edge="1">
          <mxGeometry relative="1" as="geometry">
            <mxPoint x="324.6400000000001" y="374.67999999999995" as="sourcePoint" />
            <mxPoint x="490" y="360" as="targetPoint" />
          </mxGeometry>
        </mxCell>
        <mxCell id="Bf9bwvW09UOIFA9WCzzf-87" value="" style="endArrow=none;html=1;rounded=0;exitX=1;exitY=0.5;exitDx=0;exitDy=0;" parent="1" source="Bf9bwvW09UOIFA9WCzzf-85" target="Bf9bwvW09UOIFA9WCzzf-124" edge="1">
          <mxGeometry relative="1" as="geometry">
            <mxPoint x="150" y="490" as="sourcePoint" />
            <mxPoint x="334.5454545454545" y="382.27272727272725" as="targetPoint" />
          </mxGeometry>
        </mxCell>
        <mxCell id="Bf9bwvW09UOIFA9WCzzf-88" value="" style="endArrow=none;html=1;rounded=0;exitX=1;exitY=0.5;exitDx=0;exitDy=0;entryX=0.5;entryY=1;entryDx=0;entryDy=0;" parent="1" source="Bf9bwvW09UOIFA9WCzzf-83" target="Bf9bwvW09UOIFA9WCzzf-124" edge="1">
          <mxGeometry relative="1" as="geometry">
            <mxPoint x="180" y="530" as="sourcePoint" />
            <mxPoint x="341" y="386" as="targetPoint" />
          </mxGeometry>
        </mxCell>
        <mxCell id="Bf9bwvW09UOIFA9WCzzf-92" value="apartment" style="ellipse;whiteSpace=wrap;html=1;align=center;" parent="1" vertex="1">
          <mxGeometry x="710" y="520" width="100" height="40" as="geometry" />
        </mxCell>
        <mxCell id="Bf9bwvW09UOIFA9WCzzf-93" value="street" style="ellipse;whiteSpace=wrap;html=1;align=center;" parent="1" vertex="1">
          <mxGeometry x="710" y="470" width="100" height="40" as="geometry" />
        </mxCell>
        <mxCell id="Bf9bwvW09UOIFA9WCzzf-94" value="city" style="ellipse;whiteSpace=wrap;html=1;align=center;" parent="1" vertex="1">
          <mxGeometry x="710" y="420" width="100" height="40" as="geometry" />
        </mxCell>
        <mxCell id="Bf9bwvW09UOIFA9WCzzf-95" value="adress" style="ellipse;whiteSpace=wrap;html=1;align=center;" parent="1" vertex="1">
          <mxGeometry x="710" y="370" width="100" height="40" as="geometry" />
        </mxCell>
        <mxCell id="Bf9bwvW09UOIFA9WCzzf-96" value="shipment_id" style="ellipse;whiteSpace=wrap;html=1;align=center;fontStyle=4;" parent="1" vertex="1">
          <mxGeometry x="710" y="320" width="100" height="40" as="geometry" />
        </mxCell>
        <mxCell id="Bf9bwvW09UOIFA9WCzzf-98" value="date_add" style="ellipse;whiteSpace=wrap;html=1;align=center;" parent="1" vertex="1">
          <mxGeometry x="600" y="570" width="100" height="40" as="geometry" />
        </mxCell>
        <mxCell id="Bf9bwvW09UOIFA9WCzzf-100" value="" style="endArrow=none;html=1;rounded=0;entryX=1;entryY=0;entryDx=0;entryDy=0;exitX=0;exitY=0.5;exitDx=0;exitDy=0;" parent="1" source="Bf9bwvW09UOIFA9WCzzf-96" target="Bf9bwvW09UOIFA9WCzzf-54" edge="1">
          <mxGeometry relative="1" as="geometry">
            <mxPoint x="490" y="340" as="sourcePoint" />
            <mxPoint x="650" y="340" as="targetPoint" />
          </mxGeometry>
        </mxCell>
        <mxCell id="Bf9bwvW09UOIFA9WCzzf-101" value="" style="endArrow=none;html=1;rounded=0;entryX=1;entryY=0.75;entryDx=0;entryDy=0;" parent="1" source="Bf9bwvW09UOIFA9WCzzf-93" target="Bf9bwvW09UOIFA9WCzzf-54" edge="1">
          <mxGeometry relative="1" as="geometry">
            <mxPoint x="710" y="490" as="sourcePoint" />
            <mxPoint x="480" y="390" as="targetPoint" />
          </mxGeometry>
        </mxCell>
        <mxCell id="Bf9bwvW09UOIFA9WCzzf-102" value="" style="endArrow=none;html=1;rounded=0;entryX=1;entryY=0.5;entryDx=0;entryDy=0;exitX=0;exitY=0.5;exitDx=0;exitDy=0;" parent="1" source="Bf9bwvW09UOIFA9WCzzf-95" target="Bf9bwvW09UOIFA9WCzzf-54" edge="1">
          <mxGeometry relative="1" as="geometry">
            <mxPoint x="380" y="280" as="sourcePoint" />
            <mxPoint x="540" y="280" as="targetPoint" />
          </mxGeometry>
        </mxCell>
        <mxCell id="Bf9bwvW09UOIFA9WCzzf-103" value="" style="endArrow=none;html=1;rounded=0;entryX=1;entryY=0.5;entryDx=0;entryDy=0;" parent="1" source="Bf9bwvW09UOIFA9WCzzf-94" target="Bf9bwvW09UOIFA9WCzzf-54" edge="1">
          <mxGeometry relative="1" as="geometry">
            <mxPoint x="310" y="340" as="sourcePoint" />
            <mxPoint x="470" y="340" as="targetPoint" />
          </mxGeometry>
        </mxCell>
        <mxCell id="Bf9bwvW09UOIFA9WCzzf-104" value="" style="endArrow=none;html=1;rounded=0;entryX=1;entryY=1;entryDx=0;entryDy=0;exitX=0;exitY=0.5;exitDx=0;exitDy=0;" parent="1" source="Bf9bwvW09UOIFA9WCzzf-92" target="Bf9bwvW09UOIFA9WCzzf-54" edge="1">
          <mxGeometry relative="1" as="geometry">
            <mxPoint x="420" y="280" as="sourcePoint" />
            <mxPoint x="580" y="280" as="targetPoint" />
          </mxGeometry>
        </mxCell>
        <mxCell id="Bf9bwvW09UOIFA9WCzzf-105" value="" style="endArrow=none;html=1;rounded=0;entryX=0.75;entryY=1;entryDx=0;entryDy=0;exitX=0.3;exitY=0.75;exitDx=0;exitDy=0;exitPerimeter=0;" parent="1" source="Bf9bwvW09UOIFA9WCzzf-144" target="Bf9bwvW09UOIFA9WCzzf-54" edge="1">
          <mxGeometry relative="1" as="geometry">
            <mxPoint x="714.6446609406726" y="575.8578643762689" as="sourcePoint" />
            <mxPoint x="520" y="340" as="targetPoint" />
          </mxGeometry>
        </mxCell>
        <mxCell id="Bf9bwvW09UOIFA9WCzzf-106" value="" style="endArrow=none;html=1;rounded=0;entryX=0.5;entryY=0;entryDx=0;entryDy=0;" parent="1" source="Bf9bwvW09UOIFA9WCzzf-54" target="Bf9bwvW09UOIFA9WCzzf-98" edge="1">
          <mxGeometry relative="1" as="geometry">
            <mxPoint x="360" y="400" as="sourcePoint" />
            <mxPoint x="520" y="400" as="targetPoint" />
          </mxGeometry>
        </mxCell>
        <mxCell id="Bf9bwvW09UOIFA9WCzzf-119" value="conduct_by" style="shape=rhombus;perimeter=rhombusPerimeter;whiteSpace=wrap;html=1;align=center;" parent="1" vertex="1">
          <mxGeometry x="370" y="200" width="120" height="60" as="geometry" />
        </mxCell>
        <mxCell id="Bf9bwvW09UOIFA9WCzzf-120" value="" style="endArrow=none;html=1;rounded=0;exitX=0;exitY=0.5;exitDx=0;exitDy=0;entryX=1;entryY=0.5;entryDx=0;entryDy=0;" parent="1" source="Bf9bwvW09UOIFA9WCzzf-53" target="Bf9bwvW09UOIFA9WCzzf-119" edge="1">
          <mxGeometry relative="1" as="geometry">
            <mxPoint x="370" y="330" as="sourcePoint" />
            <mxPoint x="490" y="240" as="targetPoint" />
          </mxGeometry>
        </mxCell>
        <mxCell id="Bf9bwvW09UOIFA9WCzzf-121" value="N" style="resizable=0;html=1;whiteSpace=wrap;align=right;verticalAlign=bottom;" parent="Bf9bwvW09UOIFA9WCzzf-120" connectable="0" vertex="1">
          <mxGeometry x="1" relative="1" as="geometry" />
        </mxCell>
        <mxCell id="Bf9bwvW09UOIFA9WCzzf-122" value="" style="endArrow=none;html=1;rounded=0;entryX=0;entryY=0.5;entryDx=0;entryDy=0;" parent="1" target="Bf9bwvW09UOIFA9WCzzf-119" edge="1">
          <mxGeometry relative="1" as="geometry">
            <mxPoint x="210" y="240" as="sourcePoint" />
            <mxPoint x="400" y="300" as="targetPoint" />
          </mxGeometry>
        </mxCell>
        <mxCell id="Bf9bwvW09UOIFA9WCzzf-123" value="1" style="resizable=0;html=1;whiteSpace=wrap;align=right;verticalAlign=bottom;" parent="Bf9bwvW09UOIFA9WCzzf-122" connectable="0" vertex="1">
          <mxGeometry x="1" relative="1" as="geometry" />
        </mxCell>
        <mxCell id="Bf9bwvW09UOIFA9WCzzf-124" value="OrderItem" style="rounded=1;arcSize=10;whiteSpace=wrap;html=1;align=center;" parent="1" vertex="1">
          <mxGeometry x="180" y="370" width="100" height="40" as="geometry" />
        </mxCell>
        <mxCell id="Bf9bwvW09UOIFA9WCzzf-125" value="In_Order" style="shape=rhombus;perimeter=rhombusPerimeter;whiteSpace=wrap;html=1;align=center;" parent="1" vertex="1">
          <mxGeometry x="370" y="280" width="120" height="60" as="geometry" />
        </mxCell>
        <mxCell id="Bf9bwvW09UOIFA9WCzzf-126" value="have_product" style="shape=rhombus;perimeter=rhombusPerimeter;whiteSpace=wrap;html=1;align=center;" parent="1" vertex="1">
          <mxGeometry x="240" y="450" width="120" height="60" as="geometry" />
        </mxCell>
        <mxCell id="Bf9bwvW09UOIFA9WCzzf-127" value="" style="endArrow=none;html=1;rounded=0;exitX=1;exitY=0.25;exitDx=0;exitDy=0;entryX=0;entryY=1;entryDx=0;entryDy=0;" parent="1" source="Bf9bwvW09UOIFA9WCzzf-124" target="Bf9bwvW09UOIFA9WCzzf-125" edge="1">
          <mxGeometry relative="1" as="geometry">
            <mxPoint x="210" y="280" as="sourcePoint" />
            <mxPoint x="360" y="360" as="targetPoint" />
          </mxGeometry>
        </mxCell>
        <mxCell id="Bf9bwvW09UOIFA9WCzzf-128" value="N" style="resizable=0;html=1;whiteSpace=wrap;align=right;verticalAlign=bottom;" parent="Bf9bwvW09UOIFA9WCzzf-127" connectable="0" vertex="1">
          <mxGeometry x="1" relative="1" as="geometry">
            <mxPoint x="10" y="30" as="offset" />
          </mxGeometry>
        </mxCell>
        <mxCell id="Bf9bwvW09UOIFA9WCzzf-129" value="" style="endArrow=none;html=1;rounded=0;entryX=1;entryY=0;entryDx=0;entryDy=0;exitX=0.573;exitY=1;exitDx=0;exitDy=0;exitPerimeter=0;" parent="1" source="Bf9bwvW09UOIFA9WCzzf-53" target="Bf9bwvW09UOIFA9WCzzf-125" edge="1">
          <mxGeometry relative="1" as="geometry">
            <mxPoint x="480" y="300" as="sourcePoint" />
            <mxPoint x="640" y="300" as="targetPoint" />
          </mxGeometry>
        </mxCell>
        <mxCell id="Bf9bwvW09UOIFA9WCzzf-130" value="1" style="resizable=0;html=1;whiteSpace=wrap;align=right;verticalAlign=bottom;" parent="Bf9bwvW09UOIFA9WCzzf-129" connectable="0" vertex="1">
          <mxGeometry x="1" relative="1" as="geometry" />
        </mxCell>
        <mxCell id="Bf9bwvW09UOIFA9WCzzf-131" value="" style="endArrow=none;html=1;rounded=0;exitX=0;exitY=0.5;exitDx=0;exitDy=0;entryX=1;entryY=1;entryDx=0;entryDy=0;" parent="1" source="Bf9bwvW09UOIFA9WCzzf-72" target="Bf9bwvW09UOIFA9WCzzf-126" edge="1">
          <mxGeometry relative="1" as="geometry">
            <mxPoint x="350" y="410" as="sourcePoint" />
            <mxPoint x="510" y="410" as="targetPoint" />
          </mxGeometry>
        </mxCell>
        <mxCell id="Bf9bwvW09UOIFA9WCzzf-132" value="1" style="resizable=0;html=1;whiteSpace=wrap;align=right;verticalAlign=bottom;" parent="Bf9bwvW09UOIFA9WCzzf-131" connectable="0" vertex="1">
          <mxGeometry x="1" relative="1" as="geometry">
            <mxPoint x="10" y="25" as="offset" />
          </mxGeometry>
        </mxCell>
        <mxCell id="Bf9bwvW09UOIFA9WCzzf-133" value="" style="endArrow=none;html=1;rounded=0;exitX=0.75;exitY=1;exitDx=0;exitDy=0;entryX=0;entryY=0;entryDx=0;entryDy=0;" parent="1" source="Bf9bwvW09UOIFA9WCzzf-124" target="Bf9bwvW09UOIFA9WCzzf-126" edge="1">
          <mxGeometry relative="1" as="geometry">
            <mxPoint x="320" y="430" as="sourcePoint" />
            <mxPoint x="480" y="430" as="targetPoint" />
          </mxGeometry>
        </mxCell>
        <mxCell id="Bf9bwvW09UOIFA9WCzzf-134" value="N" style="resizable=0;html=1;whiteSpace=wrap;align=right;verticalAlign=bottom;" parent="Bf9bwvW09UOIFA9WCzzf-133" connectable="0" vertex="1">
          <mxGeometry x="1" relative="1" as="geometry">
            <mxPoint x="-10" y="5" as="offset" />
          </mxGeometry>
        </mxCell>
        <mxCell id="Bf9bwvW09UOIFA9WCzzf-136" value="OrderItem_id" style="ellipse;whiteSpace=wrap;html=1;align=center;fontStyle=4;" parent="1" vertex="1">
          <mxGeometry x="10" y="340" width="100" height="40" as="geometry" />
        </mxCell>
        <mxCell id="Bf9bwvW09UOIFA9WCzzf-137" value="" style="endArrow=none;html=1;rounded=0;exitX=1;exitY=0.5;exitDx=0;exitDy=0;entryX=0;entryY=0.5;entryDx=0;entryDy=0;" parent="1" source="Bf9bwvW09UOIFA9WCzzf-136" target="Bf9bwvW09UOIFA9WCzzf-124" edge="1">
          <mxGeometry relative="1" as="geometry">
            <mxPoint x="140" y="330" as="sourcePoint" />
            <mxPoint x="300" y="330" as="targetPoint" />
          </mxGeometry>
        </mxCell>
        <mxCell id="Bf9bwvW09UOIFA9WCzzf-138" value="information" style="shape=rhombus;perimeter=rhombusPerimeter;whiteSpace=wrap;html=1;align=center;" parent="1" vertex="1">
          <mxGeometry x="365" y="380" width="120" height="60" as="geometry" />
        </mxCell>
        <mxCell id="Bf9bwvW09UOIFA9WCzzf-139" value="" style="endArrow=none;html=1;rounded=0;entryX=1;entryY=0.5;entryDx=0;entryDy=0;exitX=0;exitY=0.5;exitDx=0;exitDy=0;" parent="1" source="Bf9bwvW09UOIFA9WCzzf-54" target="Bf9bwvW09UOIFA9WCzzf-138" edge="1">
          <mxGeometry relative="1" as="geometry">
            <mxPoint x="470" y="359" as="sourcePoint" />
            <mxPoint x="630" y="359" as="targetPoint" />
          </mxGeometry>
        </mxCell>
        <mxCell id="Bf9bwvW09UOIFA9WCzzf-140" value="N" style="resizable=0;html=1;whiteSpace=wrap;align=right;verticalAlign=bottom;" parent="Bf9bwvW09UOIFA9WCzzf-139" connectable="0" vertex="1">
          <mxGeometry x="1" relative="1" as="geometry" />
        </mxCell>
        <mxCell id="Bf9bwvW09UOIFA9WCzzf-141" value="" style="endArrow=none;html=1;rounded=0;exitX=1;exitY=0.5;exitDx=0;exitDy=0;" parent="1" source="Bf9bwvW09UOIFA9WCzzf-46" target="Bf9bwvW09UOIFA9WCzzf-138" edge="1">
          <mxGeometry relative="1" as="geometry">
            <mxPoint x="210" y="250" as="sourcePoint" />
            <mxPoint x="340" y="320" as="targetPoint" />
          </mxGeometry>
        </mxCell>
        <mxCell id="Bf9bwvW09UOIFA9WCzzf-142" value="1" style="resizable=0;html=1;whiteSpace=wrap;align=right;verticalAlign=bottom;" parent="Bf9bwvW09UOIFA9WCzzf-141" connectable="0" vertex="1">
          <mxGeometry x="1" relative="1" as="geometry" />
        </mxCell>
        <mxCell id="Bf9bwvW09UOIFA9WCzzf-143" value="Shipment of Order" style="shape=rhombus;perimeter=rhombusPerimeter;whiteSpace=wrap;html=1;align=center;" parent="1" vertex="1">
          <mxGeometry x="550" y="310" width="120" height="60" as="geometry" />
        </mxCell>
        <mxCell id="Bf9bwvW09UOIFA9WCzzf-144" value="phone_number" style="ellipse;shape=doubleEllipse;margin=3;whiteSpace=wrap;html=1;align=center;" parent="1" vertex="1">
          <mxGeometry x="710" y="570" width="100" height="40" as="geometry" />
        </mxCell>
        <mxCell id="Bf9bwvW09UOIFA9WCzzf-145" value="" style="endArrow=none;html=1;rounded=0;exitX=0.75;exitY=1;exitDx=0;exitDy=0;entryX=0.5;entryY=0;entryDx=0;entryDy=0;" parent="1" source="Bf9bwvW09UOIFA9WCzzf-53" target="Bf9bwvW09UOIFA9WCzzf-143" edge="1">
          <mxGeometry relative="1" as="geometry">
            <mxPoint x="510" y="290" as="sourcePoint" />
            <mxPoint x="670" y="290" as="targetPoint" />
          </mxGeometry>
        </mxCell>
        <mxCell id="Bf9bwvW09UOIFA9WCzzf-146" value="1" style="resizable=0;html=1;whiteSpace=wrap;align=right;verticalAlign=bottom;" parent="Bf9bwvW09UOIFA9WCzzf-145" connectable="0" vertex="1">
          <mxGeometry x="1" relative="1" as="geometry" />
        </mxCell>
        <mxCell id="Bf9bwvW09UOIFA9WCzzf-147" value="" style="endArrow=none;html=1;rounded=0;exitX=0.25;exitY=0;exitDx=0;exitDy=0;entryX=0.5;entryY=1;entryDx=0;entryDy=0;" parent="1" source="Bf9bwvW09UOIFA9WCzzf-54" target="Bf9bwvW09UOIFA9WCzzf-143" edge="1">
          <mxGeometry relative="1" as="geometry">
            <mxPoint x="510" y="390" as="sourcePoint" />
            <mxPoint x="670" y="390" as="targetPoint" />
          </mxGeometry>
        </mxCell>
        <mxCell id="Bf9bwvW09UOIFA9WCzzf-148" value="N" style="resizable=0;html=1;whiteSpace=wrap;align=right;verticalAlign=bottom;" parent="Bf9bwvW09UOIFA9WCzzf-147" connectable="0" vertex="1">
          <mxGeometry x="1" relative="1" as="geometry" />
        </mxCell>
      </root>
    </mxGraphModel>
  </diagram>
</mxfile>
